# xmcd CD database file
#
# Track frame offsets:
#	150
#	22442
#	39441
#	58397
#	78910
#	96955
#	118048
#	138054
#	156877
#	176873
#	193341
#	212354
#	233148
#	253977
#	271951
#
# Disc length: 3921 seconds
#
# Revision: 0
# Processed by: cddbd v1.5.1PL0 Copyright (c) Steve Scherf et al.
# Submitted via: CDex 1.51
#
DISCID=dd0f4f0f
DTITLE=Olga Tañon - Exitos 2
DYEAR=2004
DGENRE=Salsa
TTITLE0=Entre la noche y el dia
TTITLE1=Asi es la vida
TTITLE2=Contigo o sin ti
TTITLE3=Me cambio por ella
TTITLE4=Caramelo
TTITLE5=Pegadito
TTITLE6=Viva la musica
TTITLE7=Basta ya
TTITLE8=Mienteme
TTITLE9=Por tu amor
TTITLE10=Es mentiroso
TTITLE11=Me gustas
TTITLE12=Ahora soy mala
TTITLE13=Ah ah oh no
TTITLE14=Como olvidar (Balada)
EXTD=YEAR: 2004
EXTT0=
EXTT1=
EXTT2=
EXTT3=
EXTT4=
EXTT5=
EXTT6=
EXTT7=
EXTT8=
EXTT9=
EXTT10=
EXTT11=
EXTT12=
EXTT13=
EXTT14=
PLAYORDER=
